<?xml version="1.0" standalone="no"?><!DOCTYPE svg PUBLIC "-//W3C//DTD SVG 1.1//EN" "http://www.w3.org/Graphics/SVG/1.1/DTD/svg11.dtd"><svg t="1513845849838" class="icon" style="" viewBox="0 0 1024 1024" version="1.1" xmlns="http://www.w3.org/2000/svg" p-id="9032" xmlns:xlink="http://www.w3.org/1999/xlink" width="128" height="128"><defs><style type="text/css"></style></defs><path d="M165.106347 479.70304c80.4864 68.099413 206.90944 125.928107 354.88768 154.835627 155.436373 30.3616 300.847787 22.227627 401.90976-15.056214-80.4864-68.109653-206.90944-125.928107-354.891094-154.835626-155.43296-30.3616-300.844373-22.234453-401.906346 15.056213z" fill="#5DA500" p-id="9033"></path><path d="M706.003627 672.692907c-0.006827 0 0.003413 0 0 0-61.57312 0-125.416107-6.372693-189.764267-18.940587-145.216853-28.37504-277.8112-86.36416-363.779413-159.105707a19.575467 19.575467 0 0 1 5.86752-33.31072c61.781333-22.797653 138.775893-34.84672 222.661973-34.84672 61.57312 0 125.422933 6.376107 189.77792 18.944 145.220267 28.368213 277.814613 86.357333 363.782827 159.105707a19.5584 19.5584 0 0 1 6.632106 18.33984 19.565227 19.565227 0 0 1-12.50304 14.967467c-61.784747 22.797653-138.796373 34.84672-222.675626 34.84672zM206.318933 487.038293c80.57856 58.108587 193.959253 104.164693 317.42976 128.28672 61.88032 12.086613 123.19744 18.213547 182.254934 18.213547 64.197973 0 123.808427-7.34208 174.6944-21.394773-80.575147-58.112-193.959253-104.168107-317.433174-128.283307-61.887147-12.090027-123.211093-18.21696-182.268586-18.21696-64.197973 0-123.805013 7.345493-174.677334 21.394773z" fill="#167203" p-id="9034"></path><path d="M432.684373 565.7088c43.933013 49.670827 120.75008 96.14336 216.835414 125.651627 100.918613 30.98624 201.13408 36.519253 275.817813 20.066986-43.943253-49.677653-120.763733-96.139947-216.845653-125.641386-100.918613-30.989653-201.130667-36.529493-275.807574-20.077227z" fill="#5DA500" p-id="9035"></path><path d="M834.904747 740.061867c-61.146453 0-127.235413-10.369707-191.133014-29.99296-95.563093-29.344427-177.84832-77.233493-225.75104-131.386027a19.582293 19.582293 0 0 1 10.448214-32.088747c28.66176-6.31808 60.49792-9.516373 94.621013-9.516373 61.14304 0 127.238827 10.37312 191.15008 29.996373 95.566507 29.341013 177.851733 77.226667 225.76128 131.3792a19.58912 19.58912 0 0 1 3.949227 19.03616 19.561813 19.561813 0 0 1-14.404267 13.052587c-28.668587 6.31808-60.511573 9.519787-94.641493 9.519787z m-360.88832-161.25952c44.547413 38.178133 108.51328 71.50592 181.251413 93.842773 60.218027 18.490027 122.333867 28.2624 179.633493 28.2624 17.093973 0 33.50528-0.863573 49.104214-2.577067-44.550827-38.17472-108.520107-71.499093-181.25824-93.832533-60.23168-18.496853-122.361173-28.269227-179.657387-28.269227-17.083733 0-33.488213 0.863573-49.073493 2.573654z" fill="#167203" p-id="9036"></path><path d="M87.842133 617.0624c108.701013 44.025173 262.382933 61.242027 428.81024 40.410453 174.800213-21.886293 325.64224-80.96768 419.50208-155.460266-108.711253-44.025173-262.382933-61.238613-428.806826-40.403627-174.7968 21.88288-325.64224 80.95744-419.505494 155.45344z" fill="#5DA500" p-id="9037"></path><path d="M377.84576 685.851307h-0.027307c-112.715093-0.003413-215.528107-17.513813-297.321813-50.640214a19.572053 19.572053 0 0 1-4.82304-33.477973c100.590933-79.84128 257.041067-137.99424 429.24032-159.552853 47.4624-5.942613 94.99648-8.953173 141.277867-8.953174 112.70144 0 215.51104 17.5104 297.311573 50.640214a19.575467 19.575467 0 0 1 4.82304 33.477973c-100.594347 79.84128-257.04448 137.99424-429.243733 159.552853-47.45216 5.9392-94.976 8.953173-141.236907 8.953174z m-248.948053-74.642774c71.1168 23.278933 156.32384 35.485013 248.920746 35.485014h0.023894c44.6464 0 90.525013-2.911573 136.37632-8.645974 149.405013-18.705067 285.791573-65.5872 380.880213-130.184533-71.120213-23.278933-156.32384-35.485013-248.907093-35.485013-44.66688 0-90.559147 2.911573-136.413867 8.6528-149.4016 18.705067-285.791573 65.583787-380.880213 130.177706z" fill="#167203" p-id="9038"></path><path d="M690.44224 422.88128m-119.36768 0a119.36768 119.36768 0 1 0 238.73536 0 119.36768 119.36768 0 1 0-238.73536 0Z" fill="#FF3939" p-id="9039"></path><path d="M690.44224 561.824427c-76.61568 0-138.94656-62.33088-138.94656-138.943147s62.33088-138.943147 138.94656-138.943147c76.608853 0 138.939733 62.33088 138.939733 138.943147s-62.327467 138.943147-138.939733 138.943147z m0-238.73536c-55.026347 0-99.792213 44.762453-99.792213 99.7888 0 55.022933 44.765867 99.7888 99.792213 99.7888 55.022933 0 99.785387-44.765867 99.785387-99.7888 0.003413-55.022933-44.762453-99.7888-99.785387-99.7888z" fill="#FF3939" p-id="9040"></path><path d="M703.788373 317.24544m-10.594986 0a10.594987 10.594987 0 1 0 21.189973 0 10.594987 10.594987 0 1 0-21.189973 0Z" fill="#EC4040" p-id="9041"></path><path d="M715.762347 530.643627m-10.594987 0a10.594987 10.594987 0 1 0 21.189973 0 10.594987 10.594987 0 1 0-21.189973 0Z" fill="#EC4040" p-id="9042"></path><path d="M740.949333 328.372907m-10.594986 0a10.594987 10.594987 0 1 0 21.189973 0 10.594987 10.594987 0 1 0-21.189973 0Z" fill="#EC4040" p-id="9043"></path><path d="M801.01376 478.211413m-10.594987 0a10.594987 10.594987 0 1 0 21.189974 0 10.594987 10.594987 0 1 0-21.189974 0Z" fill="#EC4040" p-id="9044"></path><path d="M695.026347 542.163627m-10.591574 0a10.591573 10.591573 0 1 0 21.183147 0 10.591573 10.591573 0 1 0-21.183147 0Z" fill="#EC4040" p-id="9045"></path><path d="M651.687253 340.954453m-10.5984 0a10.5984 10.5984 0 1 0 21.1968 0 10.5984 10.5984 0 1 0-21.1968 0Z" fill="#EC4040" p-id="9046"></path><path d="M614.526293 329.826987m-10.594986 0a10.594987 10.594987 0 1 0 21.189973 0 10.594987 10.594987 0 1 0-21.189973 0Z" fill="#EC4040" p-id="9047"></path><path d="M627.882667 349.989547m-10.594987 0a10.594987 10.594987 0 1 0 21.189973 0 10.594987 10.594987 0 1 0-21.189973 0Z" fill="#EC4040" p-id="9048"></path><path d="M755.882667 529.967787m-10.594987 0a10.594987 10.594987 0 1 0 21.189973 0 10.594987 10.594987 0 1 0-21.189973 0Z" fill="#EC4040" p-id="9049"></path><path d="M677.430613 534.111573m-10.594986 0a10.594987 10.594987 0 1 0 21.189973 0 10.594987 10.594987 0 1 0-21.189973 0Z" fill="#EC4040" p-id="9050"></path><path d="M769.099093 514.85696m-10.594986 0a10.594987 10.594987 0 1 0 21.189973 0 10.594987 10.594987 0 1 0-21.189973 0Z" fill="#EC4040" p-id="9051"></path><path d="M782.902613 497.319253m-10.594986 0a10.594987 10.594987 0 1 0 21.189973 0 10.594987 10.594987 0 1 0-21.189973 0Z" fill="#EC4040" p-id="9052"></path><path d="M626.261333 526.967467m-10.594986 0a10.594987 10.594987 0 1 0 21.189973 0 10.594987 10.594987 0 1 0-21.189973 0Z" fill="#EC4040" p-id="9053"></path><path d="M689.902933 423.335253m-10.594986 0a10.594987 10.594987 0 1 0 21.189973 0 10.594987 10.594987 0 1 0-21.189973 0Z" fill="#EC4040" p-id="9054"></path><path d="M601.808213 421.98016m-10.594986 0a10.594987 10.594987 0 1 0 21.189973 0 10.594987 10.594987 0 1 0-21.189973 0Z" fill="#EC4040" p-id="9055"></path><path d="M598.408533 402.650453m-10.594986 0a10.594987 10.594987 0 1 0 21.189973 0 10.594987 10.594987 0 1 0-21.189973 0Z" fill="#EC4040" p-id="9056"></path><path d="M584.215893 440.558933m-10.5984 0a10.5984 10.5984 0 1 0 21.1968 0 10.5984 10.5984 0 1 0-21.1968 0Z" fill="#EC4040" p-id="9057"></path><path d="M567.302827 427.113813m-10.594987 0a10.594987 10.594987 0 1 0 21.189973 0 10.594987 10.594987 0 1 0-21.189973 0Z" fill="#EC4040" p-id="9058"></path><path d="M617.51296 455.867733a10.594987 10.594987 0 1 1-13.6704-16.175786 10.594987 10.594987 0 0 1 13.6704 16.175786z" fill="#EC4040" p-id="9059"></path><path d="M576.58368 459.96032m-10.594987 0a10.594987 10.594987 0 1 0 21.189974 0 10.594987 10.594987 0 1 0-21.189974 0Z" fill="#EC4040" p-id="9060"></path><path d="M623.27808 464.878933m-10.594987 0a10.594987 10.594987 0 1 0 21.189974 0 10.594987 10.594987 0 1 0-21.189974 0Z" fill="#EC4040" p-id="9061"></path><path d="M599.138987 477.887147m-10.594987 0a10.594987 10.594987 0 1 0 21.189973 0 10.594987 10.594987 0 1 0-21.189973 0Z" fill="#EC4040" p-id="9062"></path><path d="M612.406613 487.021227m-10.594986 0a10.594987 10.594987 0 1 0 21.189973 0 10.594987 10.594987 0 1 0-21.189973 0Z" fill="#EC4040" p-id="9063"></path><path d="M648.99072 469.029547m-10.594987 0a10.594987 10.594987 0 1 0 21.189974 0 10.594987 10.594987 0 1 0-21.189974 0Z" fill="#EC4040" p-id="9064"></path><path d="M648.11008 509.556053a10.594987 10.594987 0 1 1-13.673813-16.186026 10.594987 10.594987 0 0 1 13.673813 16.186026z" fill="#EC4040" p-id="9065"></path><path d="M592.073387 487.14752m-10.591574 0a10.591573 10.591573 0 1 0 21.183147 0 10.591573 10.591573 0 1 0-21.183147 0Z" fill="#EC4040" p-id="9066"></path><path d="M666.3168 513.580373m-10.594987 0a10.594987 10.594987 0 1 0 21.189974 0 10.594987 10.594987 0 1 0-21.189974 0Z" fill="#EC4040" p-id="9067"></path><path d="M696.589653 523.127467m-10.594986 0a10.594987 10.594987 0 1 0 21.189973 0 10.594987 10.594987 0 1 0-21.189973 0Z" fill="#EC4040" p-id="9068"></path><path d="M675.5328 487.287467m-10.591573 0a10.591573 10.591573 0 1 0 21.183146 0 10.591573 10.591573 0 1 0-21.183146 0Z" fill="#EC4040" p-id="9069"></path><path d="M691.22048 455.522987m-10.5984 0a10.5984 10.5984 0 1 0 21.1968 0 10.5984 10.5984 0 1 0-21.1968 0Z" fill="#EC4040" p-id="9070"></path><path d="M711.652693 492.806827a10.581333 10.581333 0 0 1-14.926506-1.242454 10.612053 10.612053 0 0 1 1.245866-14.936746 10.60864 10.60864 0 0 1 14.92992 1.24928 10.584747 10.584747 0 0 1-1.24928 14.92992zM743.430827 484.450987a10.574507 10.574507 0 0 1-14.923094-1.25952 10.58816 10.58816 0 0 1 16.172374-13.673814 10.5984 10.5984 0 0 1-1.24928 14.933334z" fill="#EC4040" p-id="9071"></path><path d="M716.854613 448.64512m-10.591573 0a10.591573 10.591573 0 1 0 21.183147 0 10.591573 10.591573 0 1 0-21.183147 0Z" fill="#EC4040" p-id="9072"></path><path d="M654.318933 536.531627m-10.5984 0a10.5984 10.5984 0 1 0 21.1968 0 10.5984 10.5984 0 1 0-21.1968 0Z" fill="#EC4040" p-id="9073"></path><path d="M749.53728 441.35424m-10.594987 0a10.594987 10.594987 0 1 0 21.189974 0 10.594987 10.594987 0 1 0-21.189974 0Z" fill="#EC4040" p-id="9074"></path><path d="M774.00064 472.466773m-10.591573 0a10.591573 10.591573 0 1 0 21.183146 0 10.591573 10.591573 0 1 0-21.183146 0Z" fill="#EC4040" p-id="9075"></path><path d="M776.082773 435.5584m-10.594986 0a10.594987 10.594987 0 1 0 21.189973 0 10.594987 10.594987 0 1 0-21.189973 0Z" fill="#EC4040" p-id="9076"></path><path d="M749.298347 408.25856m-10.5984 0a10.5984 10.5984 0 1 0 21.1968 0 10.5984 10.5984 0 1 0-21.1968 0Z" fill="#EC4040" p-id="9077"></path><path d="M736.590507 532.36736m-10.594987 0a10.594987 10.594987 0 1 0 21.189973 0 10.594987 10.594987 0 1 0-21.189973 0Z" fill="#EC4040" p-id="9078"></path><path d="M777.837227 402.62656m-10.5984 0a10.5984 10.5984 0 1 0 21.1968 0 10.5984 10.5984 0 1 0-21.1968 0Z" fill="#EC4040" p-id="9079"></path><path d="M785.732267 368.206507m-10.591574 0a10.591573 10.591573 0 1 0 21.183147 0 10.591573 10.591573 0 1 0-21.183147 0Z" fill="#EC4040" p-id="9080"></path><path d="M806.49216 424.645973m-10.594987 0a10.594987 10.594987 0 1 0 21.189974 0 10.594987 10.594987 0 1 0-21.189974 0Z" fill="#EC4040" p-id="9081"></path><path d="M803.08224 453.4272m-10.594987 0a10.594987 10.594987 0 1 0 21.189974 0 10.594987 10.594987 0 1 0-21.189974 0Z" fill="#EC4040" p-id="9082"></path><path d="M801.979733 389.608107m-10.594986 0a10.594987 10.594987 0 1 0 21.189973 0 10.594987 10.594987 0 1 0-21.189973 0Z" fill="#EC4040" p-id="9083"></path><path d="M713.495893 309.036373m-10.594986 0a10.594987 10.594987 0 1 0 21.189973 0 10.594987 10.594987 0 1 0-21.189973 0Z" fill="#EC4040" p-id="9084"></path><path d="M746.100053 314.770773m-10.594986 0a10.594987 10.594987 0 1 0 21.189973 0 10.594987 10.594987 0 1 0-21.189973 0Z" fill="#EC4040" p-id="9085"></path><path d="M775.949653 341.323093m-10.594986 0a10.594987 10.594987 0 1 0 21.189973 0 10.594987 10.594987 0 1 0-21.189973 0Z" fill="#EC4040" p-id="9086"></path><path d="M748.19584 505.3952m-10.5984 0a10.5984 10.5984 0 1 0 21.1968 0 10.5984 10.5984 0 1 0-21.1968 0Z" fill="#EC4040" p-id="9087"></path><path d="M721.978027 507.214507m-10.594987 0a10.594987 10.594987 0 1 0 21.189973 0 10.594987 10.594987 0 1 0-21.189973 0Z" fill="#EC4040" p-id="9088"></path><path d="M638.0544 432.029013m-10.5984 0a10.5984 10.5984 0 1 0 21.1968 0 10.5984 10.5984 0 1 0-21.1968 0Z" fill="#EC4040" p-id="9089"></path><path d="M664.589653 450.286933m-10.5984 0a10.5984 10.5984 0 1 0 21.1968 0 10.5984 10.5984 0 1 0-21.1968 0Z" fill="#EC4040" p-id="9090"></path><path d="M594.2784 356.201813m-10.594987 0a10.594987 10.594987 0 1 0 21.189974 0 10.594987 10.594987 0 1 0-21.189974 0Z" fill="#EC4040" p-id="9091"></path><path d="M612.194987 381.750613m-10.5984 0a10.5984 10.5984 0 1 0 21.1968 0 10.5984 10.5984 0 1 0-21.1968 0Z" fill="#EC4040" p-id="9092"></path><path d="M641.143467 383.173973m-10.594987 0a10.594987 10.594987 0 1 0 21.189973 0 10.594987 10.594987 0 1 0-21.189973 0Z" fill="#EC4040" p-id="9093"></path><path d="M625.206613 405.896533m-10.594986 0a10.594987 10.594987 0 1 0 21.189973 0 10.594987 10.594987 0 1 0-21.189973 0Z" fill="#EC4040" p-id="9094"></path><path d="M668.419413 428.55424m-10.594986 0a10.594987 10.594987 0 1 0 21.189973 0 10.594987 10.594987 0 1 0-21.189973 0Z" fill="#EC4040" p-id="9095"></path><path d="M576.60416 387.79904m-10.594987 0a10.594987 10.594987 0 1 0 21.189974 0 10.594987 10.594987 0 1 0-21.189974 0Z" fill="#EC4040" p-id="9096"></path><path d="M602.504533 512.873813m-10.594986 0a10.594987 10.594987 0 1 0 21.189973 0 10.594987 10.594987 0 1 0-21.189973 0Z" fill="#EC4040" p-id="9097"></path><path d="M629.630293 317.057707m-10.5984 0a10.5984 10.5984 0 1 0 21.1968 0 10.5984 10.5984 0 1 0-21.1968 0Z" fill="#EC4040" p-id="9098"></path><path d="M655.43168 308.189867m-10.594987 0a10.594987 10.594987 0 1 0 21.189974 0 10.594987 10.594987 0 1 0-21.189974 0Z" fill="#EC4040" p-id="9099"></path><path d="M683.390293 297.495893m-10.591573 0a10.591573 10.591573 0 1 0 21.183147 0 10.591573 10.591573 0 1 0-21.183147 0Z" fill="#EC4040" p-id="9100"></path><path d="M673.01376 313.668267m-10.58816 0a10.58816 10.58816 0 1 0 21.17632 0 10.58816 10.58816 0 1 0-21.17632 0Z" fill="#EC4040" p-id="9101"></path><path d="M606.12608 386.239147a9.775787 9.775787 0 0 1-8.451413-14.690987c1.580373-2.72384 39.683413-66.669227 121.16992-64.22528a9.796267 9.796267 0 0 1 9.489066 10.082987c-0.167253 5.403307-4.706987 9.683627-10.082986 9.485653-69.444267-2.061653-102.301013 52.20352-103.662934 54.51776a9.813333 9.813333 0 0 1-8.461653 4.829867zM601.25184 397.800107a13.257387 13.257387 0 0 1-1.563307 18.688 13.267627 13.267627 0 0 1-17.13152-20.25472 13.277867 13.277867 0 0 1 18.694827 1.56672z" fill="#FFFFFF" p-id="9102"></path><path d="M384.89088 466.5344m-119.364267 0a119.364267 119.364267 0 1 0 238.728534 0 119.364267 119.364267 0 1 0-238.728534 0Z" fill="#E20000" p-id="9103"></path><path d="M384.89088 605.477547c-76.612267 0-138.943147-62.33088-138.943147-138.943147 0-76.612267 62.33088-138.943147 138.943147-138.943147s138.943147 62.33088 138.943147 138.943147c0 76.612267-62.33088 138.943147-138.943147 138.943147z m0-238.731947c-55.026347 0-99.7888 44.762453-99.7888 99.7888s44.765867 99.7888 99.7888 99.7888 99.792213-44.762453 99.792213-99.7888-44.76928-99.7888-99.792213-99.7888z" fill="#E20000" p-id="9104"></path><path d="M363.22304 362.2912m-10.594987 0a10.594987 10.594987 0 1 0 21.189974 0 10.594987 10.594987 0 1 0-21.189974 0Z" fill="#EC4040" p-id="9105"></path><path d="M443.825493 560.247467m-10.594986 0a10.594987 10.594987 0 1 0 21.189973 0 10.594987 10.594987 0 1 0-21.189973 0Z" fill="#EC4040" p-id="9106"></path><path d="M401.98144 360.748373m-10.594987 0a10.594987 10.594987 0 1 0 21.189974 0 10.594987 10.594987 0 1 0-21.189974 0Z" fill="#EC4040" p-id="9107"></path><path d="M507.439787 482.976427m-10.594987 0a10.594987 10.594987 0 1 0 21.189973 0 10.594987 10.594987 0 1 0-21.189973 0Z" fill="#EC4040" p-id="9108"></path><path d="M427.953493 577.87392m-10.594986 0a10.594987 10.594987 0 1 0 21.189973 0 10.594987 10.594987 0 1 0-21.189973 0Z" fill="#EC4040" p-id="9109"></path><path d="M321.6384 401.629867m-10.591573 0a10.591573 10.591573 0 1 0 21.183146 0 10.591573 10.591573 0 1 0-21.183146 0Z" fill="#EC4040" p-id="9110"></path><path d="M282.883413 403.165867m-10.594986 0a10.594987 10.594987 0 1 0 21.189973 0 10.594987 10.594987 0 1 0-21.189973 0Z" fill="#EC4040" p-id="9111"></path><path d="M302.056107 417.901227m-10.594987 0a10.594987 10.594987 0 1 0 21.189973 0 10.594987 10.594987 0 1 0-21.189973 0Z" fill="#EC4040" p-id="9112"></path><path d="M481.55648 546.577067m-10.594987 0a10.594987 10.594987 0 1 0 21.189974 0 10.594987 10.594987 0 1 0-21.189974 0Z" fill="#EC4040" p-id="9113"></path><path d="M408.695467 575.962453m-10.594987 0a10.594987 10.594987 0 1 0 21.189973 0 10.594987 10.594987 0 1 0-21.189973 0Z" fill="#EC4040" p-id="9114"></path><path d="M489.15456 527.998293m-10.594987 0a10.594987 10.594987 0 1 0 21.189974 0 10.594987 10.594987 0 1 0-21.189974 0Z" fill="#EC4040" p-id="9115"></path><path d="M496.510293 506.927787m-10.594986 0a10.594987 10.594987 0 1 0 21.189973 0 10.594987 10.594987 0 1 0-21.189973 0Z" fill="#EC4040" p-id="9116"></path><path d="M357.973333 585.82016m-10.594986 0a10.594987 10.594987 0 1 0 21.189973 0 10.594987 10.594987 0 1 0-21.189973 0Z" fill="#EC4040" p-id="9117"></path><path d="M384.535893 467.141973m-10.594986 0a10.594987 10.594987 0 1 0 21.189973 0 10.594987 10.594987 0 1 0-21.189973 0Z" fill="#EC4040" p-id="9118"></path><path d="M300.76928 494.45888m-10.594987 0a10.594987 10.594987 0 1 0 21.189974 0 10.594987 10.594987 0 1 0-21.189974 0Z" fill="#EC4040" p-id="9119"></path><path d="M291.280213 477.279573m-10.594986 0a10.594987 10.594987 0 1 0 21.189973 0 10.594987 10.594987 0 1 0-21.189973 0Z" fill="#EC4040" p-id="9120"></path><path d="M290.157227 517.737813m-10.5984 0a10.5984 10.5984 0 1 0 21.1968 0 10.5984 10.5984 0 1 0-21.1968 0Z" fill="#EC4040" p-id="9121"></path><path d="M269.796693 510.5152m-10.591573 0a10.591573 10.591573 0 1 0 21.183147 0 10.591573 10.591573 0 1 0-21.183147 0Z" fill="#EC4040" p-id="9122"></path><path d="M317.528747 515.98336m-10.594987 0a10.594987 10.594987 0 1 0 21.189973 0 10.594987 10.594987 0 1 0-21.189973 0Z" fill="#EC4040" p-id="9123"></path><path d="M289.23904 538.5728m-10.594987 0a10.594987 10.594987 0 1 0 21.189974 0 10.594987 10.594987 0 1 0-21.189974 0Z" fill="#EC4040" p-id="9124"></path><path d="M335.005013 528.05632m-10.594986 0a10.594987 10.594987 0 1 0 21.189973 0 10.594987 10.594987 0 1 0-21.189973 0Z" fill="#EC4040" p-id="9125"></path><path d="M316.39552 548.201813m-10.594987 0a10.594987 10.594987 0 1 0 21.189974 0 10.594987 10.594987 0 1 0-21.189974 0Z" fill="#EC4040" p-id="9126"></path><path d="M331.90912 552.533333m-10.594987 0a10.594987 10.594987 0 1 0 21.189974 0 10.594987 10.594987 0 1 0-21.189974 0Z" fill="#EC4040" p-id="9127"></path><path d="M360.676693 523.636053m-10.591573 0a10.591573 10.591573 0 1 0 21.183147 0 10.591573 10.591573 0 1 0-21.183147 0Z" fill="#EC4040" p-id="9128"></path><path d="M363.892053 556.827307m-10.594986 0a10.594987 10.594987 0 1 0 21.189973 0 10.594987 10.594987 0 1 0-21.189973 0Z" fill="#EC4040" p-id="9129"></path><path d="M312.715947 559.254187m-10.594987 0a10.594987 10.594987 0 1 0 21.189973 0 10.594987 10.594987 0 1 0-21.189973 0Z" fill="#EC4040" p-id="9130"></path><path d="M391.519573 560.151893m-10.594986 0a10.594987 10.594987 0 1 0 21.189973 0 10.594987 10.594987 0 1 0-21.189973 0Z" fill="#EC4040" p-id="9131"></path><path d="M423.256747 559.356587m-10.594987 0a10.594987 10.594987 0 1 0 21.189973 0 10.594987 10.594987 0 1 0-21.189973 0Z" fill="#EC4040" p-id="9132"></path><path d="M391.697067 532.29568m-10.594987 0a10.594987 10.594987 0 1 0 21.189973 0 10.594987 10.594987 0 1 0-21.189973 0Z" fill="#EC4040" p-id="9133"></path><path d="M396.22656 497.155413m-10.5984 0a10.5984 10.5984 0 1 0 21.1968 0 10.5984 10.5984 0 1 0-21.1968 0Z" fill="#EC4040" p-id="9134"></path><path d="M418.563413 520.362667m-10.594986 0a10.594987 10.594987 0 1 0 21.189973 0 10.594987 10.594987 0 1 0-21.189973 0Z" fill="#EC4040" p-id="9135"></path><path d="M445.9008 502.132053m-10.591573 0a10.591573 10.591573 0 1 0 21.183146 0 10.591573 10.591573 0 1 0-21.183146 0Z" fill="#EC4040" p-id="9136"></path><path d="M418.239147 482.327893m-10.594987 0a10.594987 10.594987 0 1 0 21.189973 0 10.594987 10.594987 0 1 0-21.189973 0Z" fill="#EC4040" p-id="9137"></path><path d="M387.628373 585.755307m-10.594986 0a10.594987 10.594987 0 1 0 21.189973 0 10.594987 10.594987 0 1 0-21.189973 0Z" fill="#EC4040" p-id="9138"></path><path d="M446.79168 464.820907m-10.594987 0a10.594987 10.594987 0 1 0 21.189974 0 10.594987 10.594987 0 1 0-21.189974 0Z" fill="#EC4040" p-id="9139"></path><path d="M480.023893 486.304427m-10.594986 0a10.594987 10.594987 0 1 0 21.189973 0 10.594987 10.594987 0 1 0-21.189973 0Z" fill="#EC4040" p-id="9140"></path><path d="M470.016 450.717013m-10.594987 0a10.594987 10.594987 0 1 0 21.189974 0 10.594987 10.594987 0 1 0-21.189974 0Z" fill="#EC4040" p-id="9141"></path><path d="M435.8144 433.60256m-10.594987 0a10.594987 10.594987 0 1 0 21.189974 0 10.594987 10.594987 0 1 0-21.189974 0Z" fill="#EC4040" p-id="9142"></path><path d="M464.08704 555.106987m-10.594987 0a10.594987 10.594987 0 1 0 21.189974 0 10.594987 10.594987 0 1 0-21.189974 0Z" fill="#EC4040" p-id="9143"></path><path d="M460.980907 419.007147m-10.594987 0a10.594987 10.594987 0 1 0 21.189973 0 10.594987 10.594987 0 1 0-21.189973 0Z" fill="#EC4040" p-id="9144"></path><path d="M457.2672 383.88736m-10.594987 0a10.594987 10.594987 0 1 0 21.189974 0 10.594987 10.594987 0 1 0-21.189974 0Z" fill="#EC4040" p-id="9145"></path><path d="M495.22688 430.523733m-10.591573 0a10.591573 10.591573 0 1 0 21.183146 0 10.591573 10.591573 0 1 0-21.183146 0Z" fill="#EC4040" p-id="9146"></path><path d="M501.3504 458.8544m-10.594987 0a10.594987 10.594987 0 1 0 21.189974 0 10.594987 10.594987 0 1 0-21.189974 0Z" fill="#EC4040" p-id="9147"></path><path d="M479.5904 398.85824m-10.594987 0a10.594987 10.594987 0 1 0 21.189974 0 10.594987 10.594987 0 1 0-21.189974 0Z" fill="#EC4040" p-id="9148"></path><path d="M369.742507 351.378773m-10.594987 0a10.594987 10.594987 0 1 0 21.189973 0 10.594987 10.594987 0 1 0-21.189973 0Z" fill="#EC4040" p-id="9149"></path><path d="M402.432 346.2144m-10.594987 0a10.594987 10.594987 0 1 0 21.189974 0 10.594987 10.594987 0 1 0-21.189974 0Z" fill="#EC4040" p-id="9150"></path><path d="M439.289173 361.63584m-10.594986 0a10.594987 10.594987 0 1 0 21.189973 0 10.594987 10.594987 0 1 0-21.189973 0Z" fill="#EC4040" p-id="9151"></path><path d="M466.305707 525.827413m-10.5984 0a10.5984 10.5984 0 1 0 21.1968 0 10.5984 10.5984 0 1 0-21.1968 0Z" fill="#EC4040" p-id="9152"></path><path d="M442.098347 536.060587m-10.594987 0a10.594987 10.594987 0 1 0 21.189973 0 10.594987 10.594987 0 1 0-21.189973 0Z" fill="#EC4040" p-id="9153"></path><path d="M338.315947 492.19584m-10.5984 0a10.5984 10.5984 0 1 0 21.1968 0 10.5984 10.5984 0 1 0-21.1968 0Z" fill="#EC4040" p-id="9154"></path><path d="M369.339733 500.84864m-10.594986 0a10.594987 10.594987 0 1 0 21.189973 0 10.594987 10.594987 0 1 0-21.189973 0Z" fill="#EC4040" p-id="9155"></path><path d="M272.29184 434.688m-10.594987 0a10.594987 10.594987 0 1 0 21.189974 0 10.594987 10.594987 0 1 0-21.189974 0Z" fill="#EC4040" p-id="9156"></path><path d="M297.530027 453.041493m-10.5984 0a10.5984 10.5984 0 1 0 21.1968 0 10.5984 10.5984 0 1 0-21.1968 0Z" fill="#EC4040" p-id="9157"></path><path d="M325.369173 444.982613m-10.594986 0a10.594987 10.594987 0 1 0 21.189973 0 10.594987 10.594987 0 1 0-21.189973 0Z" fill="#EC4040" p-id="9158"></path><path d="M317.672107 471.647573m-10.591574 0a10.591573 10.591573 0 1 0 21.183147 0 10.591573 10.591573 0 1 0-21.183147 0Z" fill="#EC4040" p-id="9159"></path><path d="M365.90592 479.054507m-10.594987 0a10.594987 10.594987 0 1 0 21.189974 0 10.594987 10.594987 0 1 0-21.189974 0Z" fill="#EC4040" p-id="9160"></path><path d="M265.826987 470.309547m-10.594987 0a10.594987 10.594987 0 1 0 21.189973 0 10.594987 10.594987 0 1 0-21.189973 0Z" fill="#EC4040" p-id="9161"></path><path d="M330.929493 580.20864m-10.5984 0a10.5984 10.5984 0 1 0 21.1968 0 10.5984 10.5984 0 1 0-21.1968 0Z" fill="#EC4040" p-id="9162"></path><path d="M293.021013 386.19136m-10.594986 0a10.594987 10.594987 0 1 0 21.189973 0 10.594987 10.594987 0 1 0-21.189973 0Z" fill="#EC4040" p-id="9163"></path><path d="M314.545493 369.421653m-10.591573 0a10.591573 10.591573 0 1 0 21.183147 0 10.591573 10.591573 0 1 0-21.183147 0Z" fill="#EC4040" p-id="9164"></path><path d="M337.513813 350.231893m-10.594986 0a10.594987 10.594987 0 1 0 21.189973 0 10.594987 10.594987 0 1 0-21.189973 0Z" fill="#EC4040" p-id="9165"></path><path d="M332.957013 368.899413m-10.594986 0a10.594987 10.594987 0 1 0 21.189973 0 10.594987 10.594987 0 1 0-21.189973 0Z" fill="#EC4040" p-id="9166"></path><path d="M283.82208 461.940053a9.78944 9.78944 0 0 1-9.611947-11.69408c0.6144-3.089067 15.906133-75.967147 93.754027-100.078933a9.786027 9.786027 0 0 1 5.792427 18.69824c-66.82624 20.701867-80.213333 84.544853-80.34304 85.189973a9.796267 9.796267 0 0 1-9.591467 7.8848z" fill="#FFFFFF" p-id="9167"></path><path d="M279.323307 485.311147m-13.264214 0a13.264213 13.264213 0 1 0 26.528427 0 13.264213 13.264213 0 1 0-26.528427 0Z" fill="#FFFFFF" p-id="9168"></path><path d="M592.40448 509.740373m-119.36768 0a119.36768 119.36768 0 1 0 238.73536 0 119.36768 119.36768 0 1 0-238.73536 0Z" fill="#CC0000" p-id="9169"></path><path d="M592.40448 648.680107c-76.612267 0-138.94656-62.33088-138.94656-138.939734 0-76.61568 62.334293-138.94656 138.94656-138.94656 76.608853 0 138.939733 62.33088 138.939733 138.94656 0 76.608853-62.33088 138.939733-138.939733 138.939734z m0-238.728534c-55.026347 0-99.792213 44.765867-99.792213 99.792214 0 55.022933 44.765867 99.7888 99.792213 99.7888 55.022933 0 99.785387-44.765867 99.785387-99.7888 0-55.026347-44.762453-99.792213-99.785387-99.792214z" fill="#CC0000" p-id="9170"></path><path d="M605.7472 404.104533m-10.594987 0a10.594987 10.594987 0 1 0 21.189974 0 10.594987 10.594987 0 1 0-21.189974 0Z" fill="#EC4040" p-id="9171"></path><path d="M617.714347 617.50272m-10.594987 0a10.594987 10.594987 0 1 0 21.189973 0 10.594987 10.594987 0 1 0-21.189973 0Z" fill="#EC4040" p-id="9172"></path><path d="M642.911573 415.232m-10.591573 0a10.591573 10.591573 0 1 0 21.183147 0 10.591573 10.591573 0 1 0-21.183147 0Z" fill="#EC4040" p-id="9173"></path><path d="M702.972587 565.07392m-10.594987 0a10.594987 10.594987 0 1 0 21.189973 0 10.594987 10.594987 0 1 0-21.189973 0Z" fill="#EC4040" p-id="9174"></path><path d="M596.978347 629.026133m-10.591574 0a10.591573 10.591573 0 1 0 21.183147 0 10.591573 10.591573 0 1 0-21.183147 0Z" fill="#EC4040" p-id="9175"></path><path d="M553.649493 427.81696m-10.594986 0a10.594987 10.594987 0 1 0 21.189973 0 10.594987 10.594987 0 1 0-21.189973 0Z" fill="#EC4040" p-id="9176"></path><path d="M516.48512 416.68608m-10.594987 0a10.594987 10.594987 0 1 0 21.189974 0 10.594987 10.594987 0 1 0-21.189974 0Z" fill="#EC4040" p-id="9177"></path><path d="M529.83808 436.84864m-10.591573 0a10.591573 10.591573 0 1 0 21.183146 0 10.591573 10.591573 0 1 0-21.183146 0Z" fill="#EC4040" p-id="9178"></path><path d="M657.844907 616.82688m-10.594987 0a10.594987 10.594987 0 1 0 21.189973 0 10.594987 10.594987 0 1 0-21.189973 0Z" fill="#EC4040" p-id="9179"></path><path d="M579.38944 620.967253m-10.594987 0a10.594987 10.594987 0 1 0 21.189974 0 10.594987 10.594987 0 1 0-21.189974 0Z" fill="#EC4040" p-id="9180"></path><path d="M671.061333 601.719467m-10.594986 0a10.594987 10.594987 0 1 0 21.189973 0 10.594987 10.594987 0 1 0-21.189973 0Z" fill="#EC4040" p-id="9181"></path><path d="M684.86144 584.178347m-10.594987 0a10.594987 10.594987 0 1 0 21.189974 0 10.594987 10.594987 0 1 0-21.189974 0Z" fill="#EC4040" p-id="9182"></path><path d="M528.213333 613.82656m-10.594986 0a10.594987 10.594987 0 1 0 21.189973 0 10.594987 10.594987 0 1 0-21.189973 0Z" fill="#EC4040" p-id="9183"></path><path d="M591.858347 510.194347m-10.594987 0a10.594987 10.594987 0 1 0 21.189973 0 10.594987 10.594987 0 1 0-21.189973 0Z" fill="#EC4040" p-id="9184"></path><path d="M503.76704 508.839253m-10.594987 0a10.594987 10.594987 0 1 0 21.189974 0 10.594987 10.594987 0 1 0-21.189974 0Z" fill="#EC4040" p-id="9185"></path><path d="M500.370773 489.506133m-10.594986 0a10.594987 10.594987 0 1 0 21.189973 0 10.594987 10.594987 0 1 0-21.189973 0Z" fill="#EC4040" p-id="9186"></path><path d="M486.17472 527.418027m-10.5984 0a10.5984 10.5984 0 1 0 21.1968 0 10.5984 10.5984 0 1 0-21.1968 0Z" fill="#EC4040" p-id="9187"></path><path d="M469.261653 513.969493m-10.594986 0a10.594987 10.594987 0 1 0 21.189973 0 10.594987 10.594987 0 1 0-21.189973 0Z" fill="#EC4040" p-id="9188"></path><path d="M512.631467 534.64064m-10.594987 0a10.594987 10.594987 0 1 0 21.189973 0 10.594987 10.594987 0 1 0-21.189973 0Z" fill="#EC4040" p-id="9189"></path><path d="M478.542507 546.819413m-10.594987 0a10.594987 10.594987 0 1 0 21.189973 0 10.594987 10.594987 0 1 0-21.189973 0Z" fill="#EC4040" p-id="9190"></path><path d="M525.236907 551.734613m-10.591574 0a10.591573 10.591573 0 1 0 21.183147 0 10.591573 10.591573 0 1 0-21.183147 0Z" fill="#EC4040" p-id="9191"></path><path d="M501.097813 564.74624m-10.594986 0a10.594987 10.594987 0 1 0 21.189973 0 10.594987 10.594987 0 1 0-21.189973 0Z" fill="#EC4040" p-id="9192"></path><path d="M514.362027 573.876907m-10.594987 0a10.594987 10.594987 0 1 0 21.189973 0 10.594987 10.594987 0 1 0-21.189973 0Z" fill="#EC4040" p-id="9193"></path><path d="M550.949547 555.88864m-10.594987 0a10.594987 10.594987 0 1 0 21.189973 0 10.594987 10.594987 0 1 0-21.189973 0Z" fill="#EC4040" p-id="9194"></path><path d="M543.225173 588.322133m-10.594986 0a10.594987 10.594987 0 1 0 21.189973 0 10.594987 10.594987 0 1 0-21.189973 0Z" fill="#EC4040" p-id="9195"></path><path d="M494.032213 574.006613m-10.594986 0a10.594987 10.594987 0 1 0 21.189973 0 10.594987 10.594987 0 1 0-21.189973 0Z" fill="#EC4040" p-id="9196"></path><path d="M568.275627 600.436053m-10.591574 0a10.591573 10.591573 0 1 0 21.183147 0 10.591573 10.591573 0 1 0-21.183147 0Z" fill="#EC4040" p-id="9197"></path><path d="M598.545067 609.989973m-10.594987 0a10.594987 10.594987 0 1 0 21.189973 0 10.594987 10.594987 0 1 0-21.189973 0Z" fill="#EC4040" p-id="9198"></path><path d="M577.491627 574.14656m-10.594987 0a10.594987 10.594987 0 1 0 21.189973 0 10.594987 10.594987 0 1 0-21.189973 0Z" fill="#EC4040" p-id="9199"></path><path d="M593.175893 542.375253m-10.5984 0a10.5984 10.5984 0 1 0 21.1968 0 10.5984 10.5984 0 1 0-21.1968 0Z" fill="#EC4040" p-id="9200"></path><path d="M606.774613 571.583147m-10.594986 0a10.594987 10.594987 0 1 0 21.189973 0 10.594987 10.594987 0 1 0-21.189973 0Z" fill="#EC4040" p-id="9201"></path><path d="M638.549333 563.213653m-10.591573 0a10.591573 10.591573 0 1 0 21.183147 0 10.591573 10.591573 0 1 0-21.183147 0Z" fill="#EC4040" p-id="9202"></path><path d="M625.650347 543.593813a10.58816 10.58816 0 0 1-14.923094-1.242453 10.584747 10.584747 0 0 1 1.245867-14.92992 10.594987 10.594987 0 0 1 13.677227 16.172373z" fill="#EC4040" p-id="9203"></path><path d="M556.27776 623.39072m-10.594987 0a10.594987 10.594987 0 1 0 21.189974 0 10.594987 10.594987 0 1 0-21.189974 0Z" fill="#EC4040" p-id="9204"></path><path d="M651.492693 528.213333m-10.594986 0a10.594987 10.594987 0 1 0 21.189973 0 10.594987 10.594987 0 1 0-21.189973 0Z" fill="#EC4040" p-id="9205"></path><path d="M675.959467 559.325867m-10.594987 0a10.594987 10.594987 0 1 0 21.189973 0 10.594987 10.594987 0 1 0-21.189973 0Z" fill="#EC4040" p-id="9206"></path><path d="M678.048427 522.41408m-10.591574 0a10.591573 10.591573 0 1 0 21.183147 0 10.591573 10.591573 0 1 0-21.183147 0Z" fill="#EC4040" p-id="9207"></path><path d="M651.260587 495.11424m-10.594987 0a10.594987 10.594987 0 1 0 21.189973 0 10.594987 10.594987 0 1 0-21.189973 0Z" fill="#EC4040" p-id="9208"></path><path d="M638.549333 619.226453m-10.594986 0a10.594987 10.594987 0 1 0 21.189973 0 10.594987 10.594987 0 1 0-21.189973 0Z" fill="#EC4040" p-id="9209"></path><path d="M681.04192 500.005547a10.58816 10.58816 0 0 1-11.76576-9.284267 10.594987 10.594987 0 1 1 11.76576 9.284267z" fill="#EC4040" p-id="9210"></path><path d="M687.691093 455.0656m-10.58816 0a10.58816 10.58816 0 1 0 21.17632 0 10.58816 10.58816 0 1 0-21.17632 0Z" fill="#EC4040" p-id="9211"></path><path d="M708.4544 511.501653m-10.594987 0a10.594987 10.594987 0 1 0 21.189974 0 10.594987 10.594987 0 1 0-21.189974 0Z" fill="#EC4040" p-id="9212"></path><path d="M705.04448 540.289707m-10.594987 0a10.594987 10.594987 0 1 0 21.189974 0 10.594987 10.594987 0 1 0-21.189974 0Z" fill="#EC4040" p-id="9213"></path><path d="M703.93856 476.470613m-10.594987 0a10.594987 10.594987 0 1 0 21.189974 0 10.594987 10.594987 0 1 0-21.189974 0Z" fill="#EC4040" p-id="9214"></path><path d="M616.69376 406.418773a10.591573 10.591573 0 1 1-2.471253-21.039786 10.591573 10.591573 0 0 1 2.471253 21.039786z" fill="#EC4040" p-id="9215"></path><path d="M648.055467 401.63328m-10.58816 0a10.58816 10.58816 0 1 0 21.17632 0 10.58816 10.58816 0 1 0-21.17632 0Z" fill="#EC4040" p-id="9216"></path><path d="M677.90848 428.1856m-10.5984 0a10.5984 10.5984 0 1 0 21.1968 0 10.5984 10.5984 0 1 0-21.1968 0Z" fill="#EC4040" p-id="9217"></path><path d="M650.151253 592.25088m-10.594986 0a10.594987 10.594987 0 1 0 21.189973 0 10.594987 10.594987 0 1 0-21.189973 0Z" fill="#EC4040" p-id="9218"></path><path d="M623.940267 594.070187m-10.594987 0a10.594987 10.594987 0 1 0 21.189973 0 10.594987 10.594987 0 1 0-21.189973 0Z" fill="#EC4040" p-id="9219"></path><path d="M540.009813 518.884693m-10.591573 0a10.591573 10.591573 0 1 0 21.183147 0 10.591573 10.591573 0 1 0-21.183147 0Z" fill="#EC4040" p-id="9220"></path><path d="M566.54848 537.146027m-10.594987 0a10.594987 10.594987 0 1 0 21.189974 0 10.594987 10.594987 0 1 0-21.189974 0Z" fill="#EC4040" p-id="9221"></path><path d="M496.237227 443.060907m-10.594987 0a10.594987 10.594987 0 1 0 21.189973 0 10.594987 10.594987 0 1 0-21.189973 0Z" fill="#EC4040" p-id="9222"></path><path d="M514.1504 468.61312m-10.594987 0a10.594987 10.594987 0 1 0 21.189974 0 10.594987 10.594987 0 1 0-21.189974 0Z" fill="#EC4040" p-id="9223"></path><path d="M543.095467 470.033067m-10.594987 0a10.594987 10.594987 0 1 0 21.189973 0 10.594987 10.594987 0 1 0-21.189973 0Z" fill="#EC4040" p-id="9224"></path><path d="M527.16544 492.755627m-10.594987 0a10.594987 10.594987 0 1 0 21.189974 0 10.594987 10.594987 0 1 0-21.189974 0Z" fill="#EC4040" p-id="9225"></path><path d="M570.381653 515.413333m-10.591573 0a10.591573 10.591573 0 1 0 21.183147 0 10.591573 10.591573 0 1 0-21.183147 0Z" fill="#EC4040" p-id="9226"></path><path d="M478.562987 474.658133m-10.594987 0a10.594987 10.594987 0 1 0 21.189973 0 10.594987 10.594987 0 1 0-21.189973 0Z" fill="#EC4040" p-id="9227"></path><path d="M504.459947 599.73632m-10.594987 0a10.594987 10.594987 0 1 0 21.189973 0 10.594987 10.594987 0 1 0-21.189973 0Z" fill="#EC4040" p-id="9228"></path><path d="M531.585707 403.9168m-10.594987 0a10.594987 10.594987 0 1 0 21.189973 0 10.594987 10.594987 0 1 0-21.189973 0Z" fill="#EC4040" p-id="9229"></path><path d="M557.390507 395.052373m-10.594987 0a10.594987 10.594987 0 1 0 21.189973 0 10.594987 10.594987 0 1 0-21.189973 0Z" fill="#EC4040" p-id="9230"></path><path d="M585.345707 384.354987m-10.594987 0a10.594987 10.594987 0 1 0 21.189973 0 10.594987 10.594987 0 1 0-21.189973 0Z" fill="#EC4040" p-id="9231"></path><path d="M574.969173 400.52736m-10.591573 0a10.591573 10.591573 0 1 0 21.183147 0 10.591573 10.591573 0 1 0-21.183147 0Z" fill="#EC4040" p-id="9232"></path><path d="M498.13504 463.2576a9.775787 9.775787 0 0 1-8.451413-14.6944c1.583787-2.720427 39.727787-66.64192 121.166506-64.221867a9.78944 9.78944 0 0 1 9.489067 10.079574 9.775787 9.775787 0 0 1-10.082987 9.489066c-69.556907-2.106027-102.301013 52.200107-103.65952 54.514347a9.813333 9.813333 0 0 1-8.461653 4.83328z" fill="#FFFFFF" p-id="9233"></path><path d="M483.13344 483.3792m-13.2608 0a13.2608 13.2608 0 1 0 26.5216 0 13.2608 13.2608 0 1 0-26.5216 0Z" fill="#FFFFFF" p-id="9234"></path></svg>